# xmcd CD database file
#
# Track frame offsets:
#	150
#	21460
#	42705
#
# Disc length: 746 seconds
#
# Revision: 1
# Processed by: cddbd v1.5.1PL0 Copyright (c) Steve Scherf et al.
# Submitted via: CDex 1.60beta1
#
DISCID=2602e803
DTITLE=中森明菜 - トワイライト -夕暮れ便り-
DYEAR=1998
DGENRE=JPop
TTITLE0=トワイライト -夕暮れ便り-
TTITLE1=ドライブ
TTITLE2=トワイライト -夕暮れ便り- <Live Version>
EXTD=YEAR: 1998
EXTT0=
EXTT1=
EXTT2=
PLAYORDER=
